<svg width="36" height="36" viewBox="0 0 36 36" fill="none" xmlns="http://www.w3.org/2000/svg">
<path d="M23.553 25.835C23.466 25.8913 23.3814 25.9456 23.2924 25.998C23.3664 25.9306 23.4534 25.874 23.553 25.835Z" fill="#463074"/>
<path d="M23.2927 25.998C23.3817 25.946 23.4663 25.8916 23.5533 25.835C23.4533 25.874 23.3663 25.9306 23.2927 25.998Z" fill="#463074"/>
<path d="M12.1803 28.0589C12.276 28.1109 12.3713 28.1609 12.4693 28.2089L11.3573 31.2149C11.227 31.5645 10.8946 31.7819 10.543 31.7819C10.443 31.7819 10.341 31.7645 10.241 31.7275C9.79129 31.5602 9.56129 31.0609 9.72829 30.6112L10.9533 27.2969C11.3463 27.5745 11.7566 27.8285 12.1803 28.0589Z" fill="#463074"/>
<path d="M25.4515 18.644C24.8565 19.1394 24.3352 19.5737 24.0332 20.336C23.3295 20.8767 22.6759 21.22 22.3609 21.3697C22.2545 21.4217 22.1459 21.474 22.0372 21.5217C22.1979 19.0937 23.3729 18.114 24.3395 17.3104C25.6449 16.2224 26.7742 15.284 25.0192 9.67402C23.9029 6.11036 22.8432 5.98636 18.0129 5.98636C13.1825 5.98636 12.1229 6.11002 11.0065 9.67402C9.25388 15.284 10.3812 16.222 11.6862 17.3104C12.6525 18.114 13.8299 19.0934 13.9882 21.5217C13.8732 21.4717 13.7602 21.4174 13.6472 21.361C13.3365 21.2134 12.6895 20.8767 11.9945 20.3424C11.6925 19.5757 11.1715 19.1414 10.5742 18.644C8.68921 17.076 7.40121 15.3797 9.34921 9.15536C10.8845 4.24902 13.2672 4.24902 18.0129 4.24902C22.7582 4.24902 25.1409 4.24902 26.6765 9.15536C28.6245 15.3797 27.3365 17.076 25.4515 18.644Z" fill="#463074"/>
<path d="M25.764 31.7272C25.6664 31.7642 25.5644 31.7816 25.4644 31.7816C25.1104 31.7816 24.778 31.5642 24.6477 31.2146L23.54 28.2196C23.6444 28.1676 23.7464 28.1152 23.8464 28.0609C24.2654 27.8349 24.6694 27.5832 25.056 27.3096L26.2787 30.6109C26.444 31.0602 26.2157 31.5599 25.764 31.7272Z" fill="#463074"/>
<path d="M26.8284 19.0415C26.2528 19.0415 25.7034 19.2565 25.2841 19.6495C25.2754 19.6562 25.2558 19.6778 25.2471 19.6842C25.2211 19.7102 25.1928 19.7385 25.1821 19.7515C24.7521 20.1968 24.2961 20.5638 23.8748 20.8592C23.2904 21.2652 22.7781 21.5325 22.5044 21.6628C22.3458 21.7412 22.1851 21.8148 22.0224 21.8865C20.7541 22.4358 19.4074 22.7138 18.0131 22.7138C16.6231 22.7138 15.2808 22.4358 14.0038 21.8865C13.8388 21.8148 13.6714 21.7365 13.5084 21.6562C13.2414 21.5282 12.7331 21.2652 12.1531 20.8592C11.7361 20.5702 11.2821 20.2055 10.8588 19.7645C10.8328 19.7385 10.8044 19.7102 10.7631 19.6712C10.7564 19.6645 10.7501 19.6558 10.7434 19.6495C10.3221 19.2565 9.77276 19.0415 9.1971 19.0415C7.95276 19.0415 6.94043 20.0535 6.94043 21.2982C6.94043 21.5828 6.99243 21.8585 7.09676 22.1192C7.1011 22.1258 7.10343 22.1345 7.10543 22.1408C7.13576 22.2105 7.16843 22.2775 7.2011 22.3495C8.0721 24.1912 9.41843 25.7962 11.0691 26.9798C11.4731 27.2708 11.8944 27.5358 12.3331 27.7725L12.5808 27.9028C14.2508 28.7585 16.1231 29.2102 18.0124 29.2102C18.9354 29.2102 19.8411 29.1082 20.7208 28.9018C21.6024 28.6978 22.4561 28.3915 23.2791 27.9875C23.3268 27.9635 23.3768 27.9375 23.4248 27.9115C23.5138 27.8682 23.6028 27.8202 23.6898 27.7748C24.1221 27.5402 24.5391 27.2795 24.9384 26.9928C26.5978 25.8068 27.9508 24.1978 28.8238 22.3472C28.8564 22.2798 28.8888 22.2105 28.9171 22.1432C28.9214 22.1345 28.9258 22.1258 28.9281 22.1192C29.0324 21.8585 29.0844 21.5828 29.0844 21.2982C29.0848 20.0538 28.0728 19.0415 26.8284 19.0415ZM27.3191 21.4655C27.2974 21.5132 27.2734 21.5612 27.2518 21.6088C26.4418 23.3268 25.1451 24.8035 23.5531 25.8352C23.4661 25.8915 23.3814 25.9458 23.2924 25.9982C23.1511 26.0852 23.0078 26.1675 22.8624 26.2458C22.7474 26.3088 22.6301 26.3695 22.5104 26.4282C21.1051 27.1208 19.5914 27.4728 18.0124 27.4728C16.3184 27.4728 14.6394 27.0472 13.1604 26.2458C12.9824 26.1502 12.8084 26.0482 12.6371 25.9395H12.6348C12.6001 25.9178 12.5654 25.8982 12.5304 25.8722C12.5281 25.8702 12.5261 25.8702 12.5238 25.8678C10.9101 24.8385 9.5941 23.3462 8.7731 21.6112C8.75143 21.5635 8.72743 21.5135 8.70576 21.4655C8.68843 21.4155 8.67743 21.3568 8.67743 21.2982C8.67743 21.0115 8.9121 20.7792 9.19643 20.7792C9.32876 20.7792 9.45276 20.8268 9.55043 20.9158L9.59376 20.9592C10.7731 22.1775 12.0828 22.9008 12.7474 23.2178C14.4001 24.0365 16.1701 24.4515 18.0121 24.4515C19.8538 24.4515 21.6238 24.0368 23.2638 23.2245C23.9414 22.9008 25.2511 22.1778 26.4411 20.9462L26.4738 20.9158C26.5714 20.8268 26.6954 20.7792 26.8278 20.7792C27.1124 20.7792 27.3468 21.0115 27.3468 21.2982C27.3474 21.3568 27.3368 21.4132 27.3191 21.4655Z" fill="#463074"/>
</svg>
